<?xml version="1.0" encoding="iso-8859-1"?>
<!-- Generator: Adobe Illustrator 19.0.0, SVG Export Plug-In . SVG Version: 6.00 Build 0)  -->
<svg version="1.1" id="Capa_1" xmlns="http://www.w3.org/2000/svg" xmlns:xlink="http://www.w3.org/1999/xlink" x="0px" y="0px"
	 viewBox="0 0 60 60" style="enable-background:new 0 0 60 60;" xml:space="preserve">

	 <circle
		 style="opacity:1;fill:#f5f5f5;fill-opacity:1;stroke:none;stroke-width:1.33299994;stroke-linecap:butt;stroke-linejoin:round;stroke-miterlimit:4;stroke-dasharray:none;stroke-dashoffset:0;stroke-opacity:1;paint-order:normal"
		 id="path5443"
		 cx="30"
		 cy="30"
		 r="30" />
	 <g
		 id="g5434"
		 transform="matrix(0.64,0,0,0.64,10.8,10.8)"
		 style="fill:#1ebdd3;fill-opacity:1">
		 
		<path
			d="M 57,4 H 50 V 1 C 50,0.447 49.553,0 49,0 H 42 C 41.447,0 41,0.447 41,1 V 4 H 19 V 1 C 19,0.447 18.553,0 18,0 H 11 C 10.447,0 10,0.447 10,1 V 4 H 3 C 2.447,4 2,4.447 2,5 v 11 43 c 0,0.553 0.447,1 1,1 h 54 c 0.553,0 1,-0.447 1,-1 V 16 5 C 58,4.447 57.553,4 57,4 Z M 43,2 h 5 V 5 8 H 43 V 5 Z M 12,2 h 5 V 5 8 H 12 V 5 Z M 4,6 h 6 v 3 c 0,0.553 0.447,1 1,1 h 7 c 0.553,0 1,-0.447 1,-1 V 6 h 22 v 3 c 0,0.553 0.447,1 1,1 h 7 c 0.553,0 1,-0.447 1,-1 V 6 h 6 v 9 H 4 Z M 4,58 V 17 h 52 v 41 z"
			id="path5430"
			style="fill:#1ebdd3;fill-opacity:1" />
		<path
			d="m 38,23 h -7 -2 -7 -2 -9 v 9 2 7 2 9 h 9 2 7 2 7 2 9 v -9 -2 -7 -2 -9 h -9 z m -7,2 h 7 v 7 h -7 z m 7,16 h -7 v -7 h 7 z M 22,34 h 7 v 7 h -7 z m 0,-9 h 7 v 7 h -7 z m -9,0 h 7 v 7 h -7 z m 0,9 h 7 v 7 h -7 z m 7,16 h -7 v -7 h 7 z m 9,0 h -7 v -7 h 7 z m 9,0 h -7 v -7 h 7 z m 9,0 h -7 v -7 h 7 z m 0,-9 h -7 v -7 h 7 z m 0,-16 v 7 h -7 v -7 z"
			id="path5432"
			style="fill:#1ebdd3;fill-opacity:1" />
	   </g>
</svg>
