<?xml version="1.0" encoding="iso-8859-1"?>
<svg version="1.1" id="Capa_1" xmlns="http://www.w3.org/2000/svg" xmlns:xlink="http://www.w3.org/1999/xlink" x="0px" y="0px" 
		viewBox="0 0 505.4 505.4" style="enable-background:new 0 0 505.4 505.4;" xml:space="preserve">
	<circle style="opacity:1;fill:#f5f5f5;fill-opacity:1;stroke:none;stroke-width:1.33299994;stroke-linecap:butt;stroke-linejoin:round;stroke-miterlimit:4;stroke-dasharray:none;stroke-dashoffset:0;stroke-opacity:1;paint-order:normal" 
			id="path5407" cx="252.7" cy="252.7" r="252.7" />
	<g id="g5398" transform="matrix(0.8,0,0,0.8,50.54,50.54)" style="fill:#1ebdd3;fill-opacity:1">
		<path d="m 437.1,233.45 c 14.8,-10.4 24.6,-27.7 24.6,-47.2 0,-31.9 -25.8,-57.7 -57.7,-57.7 -31.9,0 -57.7,25.8 -57.7,57.7 0,19.5 9.7,36.8 24.6,47.2 -12.7,4.4 -24.3,11.2 -34.1,20 -13.5,-11.5 -29.4,-20.3 -46.8,-25.5 21.1,-12.8 35.3,-36.1 35.3,-62.6 0,-40.4 -32.7,-73.1 -73.1,-73.1 -40.4,0 -73.1,32.8 -73.1,73.1 0,26.5 14.1,49.8 35.3,62.6 -17.2,5.2 -32.9,13.9 -46.3,25.2 -9.8,-8.6 -21.2,-15.3 -33.7,-19.6 14.8,-10.4 24.6,-27.7 24.6,-47.2 0,-31.9 -25.8,-57.7 -57.7,-57.7 -31.9,0 -57.7,25.8 -57.7,57.7 0,19.5 9.7,36.8 24.6,47.2 C 28.5,247.25 0,284.95 0,329.25 v 6.6 c 0,0.2 0.2,0.4 0.4,0.4 h 122.3 c -0.7,5.5 -1.1,11.2 -1.1,16.9 v 6.8 c 0,29.4 23.8,53.2 53.2,53.2 h 155 c 29.4,0 53.2,-23.8 53.2,-53.2 v -6.8 c 0,-5.7 -0.4,-11.4 -1.1,-16.9 H 505 c 0.2,0 0.4,-0.2 0.4,-0.4 v -6.6 c -0.2,-44.4 -28.6,-82.1 -68.3,-95.8 z m -74.8,-47.3 c 0,-23 18.7,-41.7 41.7,-41.7 23,0 41.7,18.7 41.7,41.7 0,22.7 -18.3,41.2 -40.9,41.7 -0.3,0 -0.5,0 -0.8,0 -0.3,0 -0.5,0 -0.8,0 -22.7,-0.4 -40.9,-18.9 -40.9,-41.7 z m -167.4,-20.8 c 0,-31.5 25.6,-57.1 57.1,-57.1 31.5,0 57.1,25.6 57.1,57.1 0,30.4 -23.9,55.3 -53.8,57 -1.1,0 -2.2,0 -3.3,0 -1.1,0 -2.2,0 -3.3,0 -29.9,-1.7 -53.8,-26.6 -53.8,-57 z m -135.6,20.8 c 0,-23 18.7,-41.7 41.7,-41.7 23,0 41.7,18.7 41.7,41.7 0,22.7 -18.3,41.2 -40.9,41.7 -0.3,0 -0.5,0 -0.8,0 -0.3,0 -0.5,0 -0.8,0 -22.6,-0.4 -40.9,-18.9 -40.9,-41.7 z m 66.2,134 H 16.2 c 4.5,-42.6 40.5,-76 84.2,-76.3 0.2,0 0.4,0 0.6,0 0.2,0 0.4,0 0.6,0 20.8,0.1 39.8,7.8 54.5,20.3 -14.4,15.6 -25.1,34.8 -30.6,56 z m 241.3,39.8 c 0,20.5 -16.7,37.2 -37.2,37.2 h -155 c -20.5,0 -37.2,-16.7 -37.2,-37.2 v -6.8 c 0,-62.1 49.6,-112.9 111.3,-114.7 1.1,0.1 2.3,0.1 3.4,0.1 1.1,0 2.3,0 3.4,-0.1 61.7,1.8 111.3,52.6 111.3,114.7 v 6.8 z m 11.9,-39.8 c -5.5,-21.1 -16,-40 -30.3,-55.6 14.8,-12.8 34,-20.5 55,-20.7 0.2,0 0.4,0 0.6,0 0.2,0 0.4,0 0.6,0 43.7,0.3 79.7,33.7 84.2,76.3 z" 
				id="path5396" style="fill:#1ebdd3;fill-opacity:1" />
	</g>
</svg>