<?xml version="1.0" encoding="iso-8859-1"?>
<svg version="1.1" id="Capa_1" xmlns="http://www.w3.org/2000/svg" xmlns:xlink="http://www.w3.org/1999/xlink" x="0px" y="0px"
	 viewBox="0 0 60 60" style="enable-background:new 0 0 60 60;" xml:space="preserve">
		<circle
     style="opacity:1;fill:#f5f5f5;fill-opacity:1;stroke:none;stroke-width:1.33299994;stroke-linecap:butt;stroke-linejoin:round;stroke-miterlimit:4;stroke-dasharray:none;stroke-dashoffset:0;stroke-opacity:1;paint-order:normal"
     id="path5290"
     cx="30"
     cy="30"
     r="30" />
	 
	 <g
     id="g4738"
     transform="matrix(0.8,0,0,0.8,6,6)"
     style="fill:#1ebdd3;fill-opacity:1">
	 <path
       d="m 29.964212,26.2757 c 3.088,0 5.6,-2.5128 5.6,-5.6 0,-3.0872 -2.512,-5.6 -5.6,-5.6 -3.088,0 -5.6,2.5128 -5.6,5.6 0,3.0872 2.512,5.6 5.6,5.6 z m 0,-9.6 c 2.2056,0 4,1.7944 4,4 0,2.2056 -1.7944,4 -4,4 -2.2056,0 -4,-1.7944 -4,-4 0,-2.2056 1.7944,-4 4,-4 z"
       id="path4732"
       style="stroke-width:0.80000001;fill:#1ebdd3;fill-opacity:1" />
	   <path
       d="m 29.822612,49.2813 12.2728,-17.7256 c 4.6032,-6.1368 3.9376,-16.224 -1.4248,-21.5856 -2.8976,-2.8984 -6.7504,-4.4944 -10.848,-4.4944 -4.0976,0 -7.9504,1.596 -10.848,4.4936 -5.3624,5.3616 -6.028,15.4488 -1.4432,21.5616 z m -9.7168,-38.1808 c 2.596,-2.5952 6.0464,-4.0248 9.7168,-4.0248 3.6704,0 7.1208,1.4296 9.7168,4.0248 4.84,4.8392 5.436,13.9496 1.2584,19.5192 l -10.9752,15.8504 -10.9928,-15.8744 c -4.16,-5.5456 -3.5632,-14.656 1.276,-19.4952 z"
       id="path4734"
       style="stroke-width:0.80000001;fill:#1ebdd3;fill-opacity:1" /><path
       d="m 39.6936,44.705519 c -0.44,-0.0536 -0.8368,0.2616 -0.888,0.7008 -0.0512,0.4392 0.2624,0.8368 0.7008,0.888 8.4128,0.9904 12.8936,3.6592 12.8936,5.2056 0,2.1712 -8.5216,5.2 -22.4,5.2 -13.8784,0 -22.4,-3.0288 -22.4,-5.2 0,-1.5464 4.4808,-4.2152 12.8936,-5.2056 0.4384,-0.0512 0.752,-0.4496 0.7008,-0.888 -0.052,-0.4392 -0.4488,-0.756 -0.888,-0.7008 -8.4232,0.992 -14.3064,3.7856 -14.3064,6.7944 0,3.3792 8.244,6.8 24,6.8 15.756,0 24,-3.4208 24,-6.8 0,-3.0088 -5.8832,-5.8024 -14.3064,-6.7944 z"
       id="path4736"
       style="stroke-width:0.80000001;fill:#1ebdd3;fill-opacity:1" />
	   </g>
</svg>
