<?xml version="1.0" encoding="UTF-8" standalone="no"?>
<svg height="480pt" width="480pt" version="1.1" id="mijnApp_user" xmlns="http://www.w3.org/2000/svg" xmlns:xlink="http://www.w3.org/1999/xlink" x="0px" y="0px"
	 viewBox="0 0 480 480" style="enable-background:new 0 0 480 480;" xml:space="preserve">
  <circle
     style="opacity:1;fill:#f5f5f5;fill-opacity:1;stroke:none;stroke-width:2.97354317;stroke-linecap:butt;stroke-linejoin:round;stroke-miterlimit:4;stroke-dasharray:2.97354331, 8.92062991999999788;stroke-dashoffset:0;stroke-opacity:1;paint-order:normal"
     id="path4508"
     cx="240"
     cy="240"
     r="240" />
  <path
     d="M 239.9935,48 C 133.956,48 47.993503,133.9625 47.993503,240 c 0,106.0375 85.962497,192 191.999997,192 5.78438,0 11.54688,-0.25938 17.28125,-0.775 5.33125,-0.47812 10.61563,-1.20938 15.85938,-2.125 l 2.01562,-0.35625 C 372.64038,410.55 440.23725,321.10312 431.1185,222.34688 421.99975,123.59062 339.1685,48.03125 239.9935,48 Z m -15.425,370.52188 h -0.45312 c -4.97813,-0.44063 -9.91875,-1.10626 -14.81563,-1.95938 -0.28125,-0.05 -0.5625,-0.0813 -0.8375,-0.13438 -4.7875,-0.85624 -9.525,-1.91874 -14.21562,-3.15937 l -1.13438,-0.29063 c -4.575,-1.24062 -9.1,-2.68124 -13.55937,-4.28124 -0.4625,-0.16563 -0.92813,-0.3125 -1.39063,-0.48438 -4.37187,-1.60625 -8.66562,-3.40625 -12.89375,-5.35312 -0.525,-0.23438 -1.05,-0.45938 -1.575,-0.70938 -4.14687,-1.91875 -8.2125,-4.08125 -12.2,-6.35625 -0.5625,-0.31875 -1.13125,-0.6375 -1.69375,-0.95313 -3.925,-2.29062 -7.75937,-4.74687 -11.52187,-7.34062 -0.56875,-0.39688 -1.14375,-0.78125 -1.70938,-1.17812 -3.69687,-2.62188 -7.3,-5.40626 -10.80937,-8.31876 l -0.96563,-0.84374 V 323.2 c 0.0469,-38.8625 31.5375,-70.35312 70.4,-70.4 h 89.6 c 38.8625,0.0469 70.35313,31.5375 70.4,70.4 v 53.96562 l -0.85,0.70938 c -3.57812,2.9875 -7.25,5.8125 -11.02187,8.48125 -0.5,0.35 -1.00625,0.68437 -1.50313,1.02813 -3.80625,2.64374 -7.70625,5.13124 -11.7,7.46874 -0.5,0.29063 -1.0125,0.56563 -1.50937,0.85313 -4.04688,2.30313 -8.1625,4.47813 -12.35938,6.4375 -0.48125,0.225 -0.96562,0.43437 -1.45312,0.64063 -4.2625,1.96562 -8.59375,3.775 -12.99688,5.39374 -0.4375,0.1625 -0.87812,0.30313 -1.28125,0.45626 -4.48125,1.60624 -9.025,3.05937 -13.625,4.30624 l -1.10312,0.275 c -4.69688,1.24063 -9.4375,2.30938 -14.23125,3.16876 -0.275,0.05 -0.55,0.0844 -0.825,0.12812 -4.90313,0.85625 -9.85,1.52188 -14.83125,1.96562 h -0.45313 c -5.11875,0.44063 -10.24062,0.67813 -15.425,0.67813 -5.18437,0 -10.34687,-0.19375 -15.45625,-0.63437 z M 367.9935,365.3 v -42.1 c -0.0531,-45.92812 -37.27187,-83.14688 -83.2,-83.2 h -89.6 c -45.92812,0.0531 -83.14687,37.27188 -83.2,83.2 v 42.09375 c -68.931246,-70.35313 -68.162497,-183.15 1.71875,-252.55937 69.88125,-69.406255 182.68125,-69.406255 252.5625,0 69.88125,69.40937 70.65,182.20624 1.71875,252.55937 z m 0,0"
     id="path2"
     style="stroke-width:0.80000001;fill:#1ebdd3;fill-opacity:1" />
  <path
     d="m 240,80 c -35.34688,0 -64,28.65312 -64,64 0,35.34688 28.65312,64 64,64 35.34688,0 64,-28.65312 64,-64 -0.0375,-35.33125 -28.66875,-63.9625 -64,-64 z m 0,115.2 c -28.27812,0 -51.2,-22.92188 -51.2,-51.2 0,-28.27812 22.92188,-51.2 51.2,-51.2 28.27812,0 51.2,22.92188 51.2,51.2 -0.0312,28.2625 -22.9375,51.16875 -51.2,51.2 z m 0,0"
     id="path4"
     style="stroke:none;stroke-width:0.79980004;stroke-miterlimit:4;stroke-dasharray:none;stroke-opacity:1;fill:#1ebdd3;fill-opacity:1" />
</svg>
