<?xml version="1.0" encoding="UTF-8" standalone="no"?>
<svg
   xmlns:dc="http://purl.org/dc/elements/1.1/"
   xmlns:cc="http://creativecommons.org/ns#"
   xmlns:rdf="http://www.w3.org/1999/02/22-rdf-syntax-ns#"
   xmlns:svg="http://www.w3.org/2000/svg"
   xmlns="http://www.w3.org/2000/svg"
   xmlns:sodipodi="http://sodipodi.sourceforge.net/DTD/sodipodi-0.dtd"
   xmlns:inkscape="http://www.inkscape.org/namespaces/inkscape"
   width="50"
   height="50"
   viewBox="0 0 366.636 366.636"
   version="1.1"
   id="svg3749"
   sodipodi:docname="egbert.svg"
   inkscape:version="0.92.4 (5da689c313, 2019-01-14)">
  <metadata
     id="metadata3755">
    <rdf:RDF>
      <cc:Work
         rdf:about="">
        <dc:format>image/svg+xml</dc:format>
        <dc:type
           rdf:resource="http://purl.org/dc/dcmitype/StillImage" />
        <dc:title></dc:title>
      </cc:Work>
    </rdf:RDF>
  </metadata>
  <defs
     id="defs3753" />
  <sodipodi:namedview
     pagecolor="#ffffff"
     bordercolor="#666666"
     borderopacity="1"
     objecttolerance="10"
     gridtolerance="10"
     guidetolerance="10"
     inkscape:pageopacity="0"
     inkscape:pageshadow="2"
     inkscape:window-width="1920"
     inkscape:window-height="1017"
     id="namedview3751"
     showgrid="false"
     inkscape:zoom="8.48"
     inkscape:cx="-24.536589"
     inkscape:cy="37.510427"
     inkscape:window-x="1912"
     inkscape:window-y="-8"
     inkscape:window-maximized="1"
     inkscape:current-layer="svg3749" />
  <g
     id="g3747"
     transform="matrix(0.94454713,0,0,0.94833948,-397.18367,-104.77001)">
    <g
       id="g3727">
      <polygon
         style="fill:#ffb819"
         points="109.313,142.129 7.261,366.636 230.796,262.472 "
         id="polygon3713" />
      <circle
         style="fill:#ffd26c"
         cx="139.46001"
         cy="232.5"
         r="27.121"
         id="circle3715" />
      <path
         style="fill:#ffd26c"
         d="m 64.791,240.073 c 7.507,0.439 15.158,-2.219 20.866,-7.982 10.454,-10.552 10.455,-27.525 0.076,-38.087 z"
         id="path3717"
         inkscape:connector-curvature="0" />
      <path
         style="fill:#ffd26c"
         d="m 34.985,337.966 c -5.319,5.371 -7.93,12.403 -7.847,19.408 l 44.797,-20.876 c -10.697,-9.221 -26.859,-8.718 -36.95,1.468 z"
         id="path3719"
         inkscape:connector-curvature="0" />
      <path
         style="fill:#ffd26c"
         d="m 142.845,283.129 c -6.434,6.495 -8.903,15.423 -7.436,23.792 l 47.484,-22.127 c -0.534,-0.634 -1.093,-1.252 -1.693,-1.846 -10.641,-10.541 -27.813,-10.46 -38.355,0.181 z"
         id="path3721"
         inkscape:connector-curvature="0" />
      <circle
         style="fill:#ffd26c"
         cx="77.177002"
         cy="286.45099"
         r="27.121"
         id="circle3723" />
      <polygon
         style="fill:#004d7a"
         points="230.796,262.472 109.313,142.129 96.306,170.743 202.305,275.748 "
         id="polygon3725" />
    </g>
    <circle
       style="fill:#00bcb4"
       cx="135"
       cy="86.679001"
       r="18.497"
       id="circle3729" />
    <circle
       style="fill:#00bcb4"
       cx="276.53"
       cy="235.558"
       r="18.497"
       id="circle3731" />
    <circle
       style="fill:#ffb819"
       cx="316.73999"
       cy="153.03799"
       r="18.497"
       id="circle3733" />
    <circle
       style="fill:#ffb819"
       cx="176.10201"
       cy="18.497"
       r="18.497"
       id="circle3735" />
    <circle
       style="fill:#d85c72"
       cx="228.315"
       cy="181.41901"
       r="18.497"
       id="circle3737" />
    <circle
       style="fill:#d85c72"
       cx="239.536"
       cy="74.686996"
       r="18.497"
       id="circle3739" />
    <circle
       style="fill:#d85c72"
       cx="334.38501"
       cy="83.179001"
       r="18.497"
       id="circle3741" />
    <path
       style="fill:#00bcb4"
       d="m 133.624,143.693 c -3.767,0 -6.819,-3.053 -6.819,-6.819 0,-3.766 3.052,-6.819 6.819,-6.819 25.377,0 46.024,-20.646 46.024,-46.024 0,-32.898 26.764,-59.662 59.662,-59.662 32.897,0 59.661,26.764 59.661,59.662 0,3.766 -3.053,6.818 -6.818,6.818 -3.765,0 -6.818,-3.052 -6.818,-6.818 0,-25.378 -20.647,-46.024 -46.024,-46.024 -25.378,0 -46.024,20.646 -46.024,46.024 -0.002,32.898 -26.767,59.662 -59.663,59.662 z"
       id="path3743"
       inkscape:connector-curvature="0" />
    <path
       style="fill:#ffb819"
       d="m 312.259,210.037 c -25.978,0 -47.115,-21.136 -47.115,-47.115 0,-18.459 -15.019,-33.479 -33.478,-33.479 -18.46,0 -33.479,15.019 -33.479,33.479 0,3.766 -3.053,6.818 -6.817,6.818 -3.767,0 -6.819,-3.052 -6.819,-6.818 0,-25.979 21.136,-47.115 47.115,-47.115 25.979,0 47.115,21.136 47.115,47.115 0,18.46 15.018,33.478 33.478,33.478 18.46,0 33.478,-15.018 33.478,-33.478 0,-3.766 3.054,-6.818 6.82,-6.818 3.764,0 6.817,3.052 6.817,6.818 10e-4,25.979 -21.135,47.115 -47.115,47.115 z"
       id="path3745"
       inkscape:connector-curvature="0" />
  </g>
  <ellipse
     id="path3757"
     style="fill:#00ffff;fill-opacity:0.14572868;stroke-width:11.27433777"
     ry="219.54156"
     rx="214.54323"
     cy="62.022488"
     cx="-244.26315"
     transform="matrix(0.98745041,-0.1579294,0.15246355,0.98830909,0,0)" />
</svg>
